
<svg xmlns="http://www.w3.org/2000/svg" aria-hidden="true" style="position:absolute;width:0;height:0;overflow:hidden"><defs><symbol id="logo" viewBox="0 0 32 32"><path d="M5.426 26.392c0 .055.012.099.038.131s.064.05.115.055l.326.036c.043.004.073.017.093.039a.096.096 0 0 1 .032.074c0 .07-.047.105-.141.105l-1.442-.005a.164.164 0 0 1-.099-.026.096.096 0 0 1-.035-.077c0-.03.01-.053.029-.07a.192.192 0 0 1 .093-.044l.16-.031c.055-.015.096-.036.122-.064s.039-.067.039-.118l.007-2.052a.165.165 0 0 0-.032-.106c-.019-.028-.057-.051-.115-.071l-.182-.049a.404.404 0 0 1-.134-.064.099.099 0 0 1-.032-.07c0-.03.011-.053.032-.07s.054-.025.099-.025l.521.002-.154.111v-.105c0-.07-.016-.136-.047-.198s-.069-.126-.111-.192a1.416 1.416 0 0 1-.111-.224.82.82 0 0 1-.044-.285c.001-.245.087-.443.258-.594s.404-.226.698-.224c.19.001.35.033.482.098a.715.715 0 0 1 .3.247c.07.102.105.213.104.333 0 .117-.029.206-.087.265s-.133.089-.227.089a.312.312 0 0 1-.236-.094.365.365 0 0 1-.085-.256l.001-.157c0-.109-.029-.191-.089-.246-.057-.058-.139-.087-.246-.087a.383.383 0 0 0-.298.124c-.068.079-.103.192-.103.342a.69.69 0 0 0 .044.253c.032.075.071.145.118.211l.143.186c.046.06.086.122.118.186a.444.444 0 0 1 .047.208v.131l-.086-.119.748.003c.043 0 .076.009.099.026.023.015.035.038.035.07 0 .045-.023.082-.067.112a.403.403 0 0 1-.208.041l-.479-.002-.008 2.25zm2.753-2.615c.311.001.586.069.824.204.238.133.424.318.557.555s.2.51.199.819c-.001.298-.07.566-.207.802s-.326.422-.568.557c-.241.133-.521.2-.838.198a1.66 1.66 0 0 1-.827-.204 1.48 1.48 0 0 1-.558-.558 1.628 1.628 0 0 1-.199-.816c.001-.303.07-.571.207-.805a1.49 1.49 0 0 1 .571-.551c.241-.136.521-.203.838-.202zm.211 2.868a.708.708 0 0 0 .435-.216.974.974 0 0 0 .225-.485c.039-.204.036-.445-.01-.722s-.122-.508-.228-.691a.987.987 0 0 0-.382-.398.778.778 0 0 0-.498-.088.712.712 0 0 0-.435.219.94.94 0 0 0-.222.485c-.037.202-.033.442.01.719s.119.508.225.691c.106.184.233.317.382.401.151.081.317.11.498.085zm2.862-1.46a1.92 1.92 0 0 1 .137-.763c.09-.209.207-.366.35-.472a.735.735 0 0 1 .454-.161c.192.001.341.054.447.161s.159.254.158.442c-.001.145-.033.256-.097.332a.299.299 0 0 1-.24.111c-.1 0-.178-.028-.233-.084s-.083-.133-.082-.234v-.109c0-.072-.017-.126-.051-.16-.034-.036-.089-.055-.166-.055a.415.415 0 0 0-.269.111.769.769 0 0 0-.215.328 1.571 1.571 0 0 0-.085.553h-.109zm.078-1.211.033.758-.006 1.684a.19.19 0 0 0 .035.122c.025.028.068.046.128.055l.288.039c.043.007.075.019.096.039s.032.045.032.077a.09.09 0 0 1-.039.077.162.162 0 0 1-.106.028l-1.352-.005c-.049 0-.085-.01-.109-.029a.096.096 0 0 1-.032-.074.09.09 0 0 1 .026-.067.165.165 0 0 1 .08-.044l.154-.031a.17.17 0 0 0 .096-.057.22.22 0 0 0 .032-.128l.007-1.991c0-.047-.008-.081-.025-.102-.015-.021-.04-.034-.077-.039l-.217-.01c-.036-.004-.062-.014-.077-.029s-.022-.035-.022-.061c0-.026.009-.047.026-.064a.276.276 0 0 1 .096-.054l.528-.18c.083-.032.144-.052.182-.06a.392.392 0 0 1 .099-.016c.038 0 .067.013.086.039a.223.223 0 0 1 .038.125zm4.63 1.029c0 .096-.029.169-.087.22-.056.049-.138.073-.246.073l-2.043-.007.001-.201 1.534.005c.104 0 .157-.045.157-.137.001-.286-.06-.508-.183-.669s-.287-.241-.491-.241c-.162-.001-.305.045-.429.136s-.221.222-.292.392a1.566 1.566 0 0 0-.104.597c-.001.424.099.746.3.966.204.22.47.331.798.332.211.001.394-.047.55-.142s.265-.222.327-.379a.463.463 0 0 1 .067-.07.084.084 0 0 1 .058-.022c.03 0 .051.013.064.039a.155.155 0 0 1 .016.086.863.863 0 0 1-.193.482c-.113.145-.265.26-.455.347-.19.085-.405.126-.646.126a1.637 1.637 0 0 1-.789-.188 1.348 1.348 0 0 1-.532-.532 1.628 1.628 0 0 1-.186-.8c.001-.311.064-.588.188-.83.124-.245.301-.437.529-.577.231-.142.503-.212.816-.211.262.001.488.053.677.156.191.103.338.245.44.427.104.179.155.387.155.624zm3.265-.359c0 .1-.034.184-.1.252a.35.35 0 0 1-.262.098.333.333 0 0 1-.249-.09.34.34 0 0 1-.085-.243v-.102c0-.149-.051-.27-.155-.362s-.247-.138-.428-.139a.72.72 0 0 0-.438.139.915.915 0 0 0-.299.392c-.073.168-.11.366-.111.594-.001.277.045.513.138.707.093.192.223.339.388.439s.354.151.565.152a.972.972 0 0 0 .528-.139.796.796 0 0 0 .318-.373.463.463 0 0 1 .067-.07.095.095 0 0 1 .061-.022c.03.002.05.015.061.039a.148.148 0 0 1 .016.083.904.904 0 0 1-.19.482c-.111.142-.259.256-.442.34s-.394.126-.63.126a1.63 1.63 0 0 1-.786-.188 1.348 1.348 0 0 1-.532-.532c-.125-.228-.187-.495-.186-.8s.066-.579.195-.824a1.48 1.48 0 0 1 .549-.58c.235-.144.51-.216.825-.214.245.001.456.04.633.117s.313.179.408.305a.665.665 0 0 1 .142.413zm2.438 1.85v-.061l-.042-.019.006-1.828c.001-.183-.045-.324-.136-.422-.091-.101-.222-.151-.393-.152-.162-.001-.284.033-.365.101s-.122.148-.122.239l-.001.249a.29.29 0 0 1-.103.239.412.412 0 0 1-.275.082c-.104 0-.184-.027-.239-.081a.303.303 0 0 1-.079-.218c0-.132.052-.259.155-.38.103-.123.251-.224.445-.302.194-.08.431-.12.71-.119.362.001.63.08.805.236a.792.792 0 0 1 .263.627l-.006 1.729c0 .068.012.118.038.15a.14.14 0 0 0 .112.048c.053 0 .092-.011.115-.035s.043-.048.058-.073a.241.241 0 0 1 .032-.032.067.067 0 0 1 .045-.016c.021 0 .037.009.048.026a.1.1 0 0 1 .016.061.334.334 0 0 1-.065.188c-.041.064-.102.118-.183.162s-.182.066-.304.066a.611.611 0 0 1-.396-.12c-.093-.081-.14-.198-.139-.349zm-1.898-.278c.001-.251.113-.457.338-.616.226-.161.54-.241.941-.24a1.786 1.786 0 0 1 .715.146l-.049.169a1.88 1.88 0 0 0-.275-.09 1.1 1.1 0 0 0-.3-.039c-.211-.001-.376.05-.496.152-.12.1-.18.237-.18.412-.001.173.047.305.142.397a.533.533 0 0 0 .377.139.918.918 0 0 0 .406-.094c.132-.066.246-.157.34-.274l.067.147c-.126.17-.289.302-.487.395s-.409.139-.63.138c-.268-.001-.488-.068-.658-.201a.657.657 0 0 1-.251-.541zm4.54-2.152a.554.554 0 0 0-.381.123.417.417 0 0 0-.139.322c0 .083.019.158.057.224s.107.127.207.183c.1.054.243.104.428.152.294.069.524.153.69.252s.282.211.347.337a.868.868 0 0 1 .101.419.812.812 0 0 1-.293.651c-.192.163-.469.244-.829.243a1.309 1.309 0 0 1-.543-.107c-.055-.024-.104-.035-.147-.036s-.077.011-.102.035a1.18 1.18 0 0 0-.071.07c-.021.026-.051.038-.09.038a.086.086 0 0 1-.067-.029.32.32 0 0 1-.048-.093l-.231-.678a.31.31 0 0 1-.015-.141c.009-.038.032-.065.071-.08s.073-.015.102 0c.03.015.056.043.08.083.093.175.194.315.302.42.11.103.226.176.348.219.123.043.249.065.377.065.202.001.354-.041.454-.126a.42.42 0 0 0 .155-.338.415.415 0 0 0-.066-.23.581.581 0 0 0-.233-.196 2.118 2.118 0 0 0-.479-.168c-.258-.063-.463-.139-.616-.229s-.264-.198-.331-.324a.924.924 0 0 1-.098-.435.796.796 0 0 1 .488-.749 1.24 1.24 0 0 1 .544-.11 1.116 1.116 0 0 1 .53.121.351.351 0 0 0 .147.039c.045 0 .08-.012.106-.038s.049-.051.071-.076a.11.11 0 0 1 .09-.041c.023 0 .044.009.061.026.019.017.033.047.041.09l.18.643c.015.062.02.113.015.154s-.028.069-.071.086a.106.106 0 0 1-.099-.01.374.374 0 0 1-.086-.109c-.123-.233-.268-.398-.436-.497a1.006 1.006 0 0 0-.52-.152zm2.025.1-.172-.042c-.053-.015-.089-.032-.109-.052s-.029-.042-.029-.067c0-.032.011-.056.032-.073a.159.159 0 0 1 .096-.025l.205.001c.055 0 .1-.008.134-.025a.264.264 0 0 0 .093-.099l.26-.469a.394.394 0 0 1 .093-.102.168.168 0 0 1 .099-.035c.036 0 .064.012.083.035.021.021.032.052.032.093l-.009 2.816c0 .147.029.259.088.336a.31.31 0 0 0 .255.116.345.345 0 0 0 .179-.038.304.304 0 0 0 .103-.089l.071-.092a.115.115 0 0 1 .083-.044c.028 0 .048.009.061.026.015.017.022.045.022.083a.435.435 0 0 1-.103.265.703.703 0 0 1-.269.204.954.954 0 0 1-.397.075c-.234-.001-.421-.062-.559-.184s-.207-.306-.206-.554l.006-1.876c0-.051-.01-.09-.032-.115a.224.224 0 0 0-.112-.068zm.515-.011.001-.246 1.004.004c.043 0 .076.009.099.026.023.015.035.038.035.07 0 .043-.023.079-.067.108a.403.403 0 0 1-.208.041l-.863-.003zM19.559 15.132c-.136.247-.296.549-.48.907-.178.353-.37.738-.575 1.154s-.414.844-.627 1.282c-.213.438-.425.87-.636 1.297l-.594 1.185c-.185.368-.354.687-.509.954a.492.492 0 0 1-.317.244c-.13.038-.268.015-.415-.069s-.24-.192-.278-.322a.496.496 0 0 1 .058-.399c.148-.262.323-.571.523-.928.206-.356.427-.735.664-1.138.238-.408.481-.821.731-1.239a207.101 207.101 0 0 0 1.385-2.353c.2-.345.367-.642.503-.888.142-.252.302-.557.481-.915.184-.358.378-.745.584-1.162l.628-1.29c.218-.443.431-.875.636-1.297.212-.427.412-.822.602-1.185.19-.368.357-.684.5-.946a.523.523 0 0 1 .318-.253.522.522 0 0 1 .415.069c.152.085.245.195.278.33a.516.516 0 0 1-.05.4c-.149.267-.326.582-.533.943-.206.356-.43.738-.673 1.146a233.796 233.796 0 0 0-1.461 2.479 86.203 86.203 0 0 0-1.157 1.994z" style="fill:var(--color1, #000)"/><path fill="#341355" d="M5.071 16.154c-.19-.001-.343-.082-.459-.243s-.174-.399-.173-.713c.001-.38.065-.727.19-1.04.133-.321.316-.616.551-.886.191-.211.422-.415.692-.611.271-.204.586-.396.944-.578.417-.21.758-.432 1.021-.665.264-.24.462-.495.594-.765s.199-.569.2-.898c.001-.314-.089-.574-.271-.779a1.521 1.521 0 0 0-.689-.452 2.733 2.733 0 0 0-.92-.157 2.133 2.133 0 0 0-.559.064 1.261 1.261 0 0 0-.373.163c-.088.058-.132.113-.132.164 0 .044.04.102.12.176.087.073.233.183.437.33.182.132.321.271.415.418a.756.756 0 0 1 .141.439c-.001.219-.063.394-.188.525a1.024 1.024 0 0 1-.45.272 2 2 0 0 1-1.107-.004.985.985 0 0 1-.448-.276c-.116-.132-.174-.318-.173-.56.001-.234.071-.467.211-.701.147-.233.359-.448.638-.644a3.203 3.203 0 0 1 1.032-.479 5.02 5.02 0 0 1 1.436-.181c.986.003 1.746.174 2.278.512s.797.817.795 1.438a1.8 1.8 0 0 1-.321 1.029c-.206.313-.513.601-.924.863-.41.254-.922.483-1.537.685-.746.231-1.357.459-1.832.684-.468.218-.827.439-1.076.665s-.407.47-.474.733l.109.055a1.59 1.59 0 0 1 .451-.459c.19-.131.399-.232.626-.305.234-.08.472-.133.713-.162.249-.036.486-.046.712-.03.321.016.624.068.909.157.292.081.562.174.81.277.255.103.478.195.668.276s.347.122.471.122c.212.001.38-.119.505-.36s.188-.598.19-1.073h.11c-.002.555-.058 1.023-.169 1.402-.104.38-.254.686-.452.919s-.429.4-.692.502a2.143 2.143 0 0 1-.855.161 3.584 3.584 0 0 1-.789-.101c-.285-.059-.573-.141-.865-.244s-.58-.214-.865-.332c-.263-.111-.503-.21-.722-.298s-.401-.158-.547-.21a.906.906 0 0 0-.307-.089c-.044 0-.066.014-.066.044 0 .066.04.124.12.176.088.051.186.107.295.165.139.059.255.129.35.21a.345.345 0 0 1 .031.548.442.442 0 0 1-.329.119zm6.645-2.047.001-.263c.285-.116.552-.257.801-.425.249-.174.451-.378.605-.612.103-.153.184-.321.243-.503s.089-.376.09-.581a1.384 1.384 0 0 0-.173-.68 4.651 4.651 0 0 0-.545-.802 4.02 4.02 0 0 1-.415-.538c-.109-.19-.163-.384-.162-.581s.052-.372.155-.526c.11-.153.257-.273.44-.36.183-.094.391-.141.625-.14.285.001.529.093.733.277.204.176.357.432.458.769.108.329.162.731.16 1.206-.002.504-.065.946-.191 1.325a3.438 3.438 0 0 1-.475.974c-.191.255-.403.47-.638.644-.234.167-.48.298-.736.392a3.153 3.153 0 0 1-.713.184v.132l3.124-.088.011-3.43 2.079-2.239h.099l-.019 5.611.647-.02-.001.296-.647-.002-.006 1.688.591.112v.11l-3.354-.012v-.11l.592-.107.006-1.688-3.386-.012z" style="fill:var(--color2, #341355)"/><path fill="#077066" d="M24.563 21.251c-.504-.002-.95-.087-1.336-.257s-.689-.404-.907-.705a1.751 1.751 0 0 1-.314-1.042c.001-.387.101-.734.299-1.04.206-.313.517-.594.934-.841.417-.254.944-.483 1.58-.685a8.56 8.56 0 0 0 1.47-.565c.402-.203.721-.425.956-.665a1.82 1.82 0 0 0 .463-.809l-.109-.055c-.11.168-.275.324-.495.47-.22.138-.468.243-.746.315-.271.072-.548.1-.833.085a5.387 5.387 0 0 1-.986-.135 13.062 13.062 0 0 1-.854-.255 21.976 21.976 0 0 0-.701-.244 1.569 1.569 0 0 0-.515-.111c-.146-.001-.27.043-.373.13s-.183.219-.242.394a3.426 3.426 0 0 0-.112.668l-.001.351h-.121l.01-2.937.164.001-.005 1.534c.141-.555.401-.974.782-1.258.381-.291.871-.435 1.47-.433.219.001.446.031.679.09.241.059.478.141.712.244.233.096.456.199.667.309.219.103.423.206.613.309.197.096.372.173.525.232s.274.089.361.089c.058 0 .088-.022.088-.065 0-.029-.036-.07-.109-.121a2.669 2.669 0 0 0-.35-.242 1.983 1.983 0 0 1-.35-.264c-.08-.088-.12-.165-.12-.231 0-.102.041-.182.121-.241a.504.504 0 0 1 .329-.098c.226.001.402.064.525.188.131.117.196.286.196.505a3.935 3.935 0 0 1-.124.986 3.158 3.158 0 0 1-.332.854c-.132.226-.363.496-.693.809s-.736.648-1.22 1.004a5.165 5.165 0 0 0-.714.622c-.183.204-.323.404-.418.601s-.144.398-.145.602c-.001.365.118.651.359.856s.573.309.996.31c.219.001.435-.053.647-.162.212-.116.395-.273.55-.469.161-.197.279-.419.353-.667l.131.066a2.786 2.786 0 0 1-.563 1.072 2.606 2.606 0 0 1-.945.676 3.214 3.214 0 0 1-1.25.226z" style="fill:var(--color3, #077066)"/></symbol><symbol id="burger" viewBox="0 0 32 32"><path d="M4 24h24v-2.667H4V24zm0-6.667h24v-2.667H4v2.667zM4 8v2.667h24V8H4z"/></symbol><symbol id="heart" viewBox="0 0 32 32"><path d="M22 4c-2.32 0-4.547 1.08-6 2.787C14.547 5.08 12.32 4 10 4c-4.107 0-7.333 3.227-7.333 7.333 0 5.04 4.533 9.147 11.4 15.387L16 28.467l1.933-1.76c6.867-6.227 11.4-10.333 11.4-15.373 0-4.107-3.227-7.333-7.333-7.333zm-5.867 20.733-.133.133-.133-.133c-6.347-5.747-10.533-9.547-10.533-13.4 0-2.667 2-4.667 4.667-4.667 2.053 0 4.187 2.293 4.76 3.147s1.24 1.52 1.24 1.52l1.253-1.52c1.253-1.52 2.693-3.147 4.747-3.147 2.667 0 4.667 2 4.667 4.667 0 3.853-4.187 7.653-10.533 13.4z"/></symbol><symbol id="round-arrow" viewBox="0 0 32 32"><path d="M23.533 8.467A10.611 10.611 0 0 0 16 5.334c-5.893 0-10.653 4.773-10.653 10.667S10.107 26.668 16 26.668c4.973 0 9.12-3.4 10.307-8h-2.773a7.986 7.986 0 0 1-7.533 5.333c-4.413 0-8-3.587-8-8s3.587-8 8-8c2.213 0 4.187.92 5.627 2.373l-4.293 4.293h9.333V5.334l-3.133 3.133z"/></symbol><symbol id="trashbin" viewBox="0 0 32 32"><path d="M8 28h16V9.333H8V28zm2.667-16h10.667v13.333H10.667V12zm10-6.667L19.334 4h-6.667l-1.333 1.333H6.667V8h18.667V5.333h-4.667z"/></symbol></defs></svg>