<svg width="84" height="84" viewBox="0 0 84 84" fill="none" xmlns="http://www.w3.org/2000/svg">
<path d="M14.2422 69.2789C14.2417 69.4243 14.2749 69.5391 14.3417 69.6233C14.4086 69.7074 14.5091 69.7553 14.6433 69.767L15.4989 69.8623C15.6107 69.8739 15.6917 69.9077 15.7418 69.9638C15.7976 70.0144 15.8254 70.0788 15.8251 70.1571C15.8245 70.3417 15.7011 70.4336 15.455 70.4327L11.6708 70.4193C11.5589 70.4189 11.4723 70.3963 11.4109 70.3513C11.3496 70.3007 11.319 70.2335 11.3193 70.1496C11.3196 70.0713 11.3449 70.0098 11.3954 69.9653C11.446 69.9151 11.5272 69.8762 11.6392 69.8487L12.059 69.7662C12.2045 69.7276 12.311 69.672 12.3784 69.5995C12.4458 69.5271 12.4797 69.4237 12.4801 69.2895L12.4982 63.9027C12.4986 63.7908 12.4709 63.6984 12.4153 63.6255C12.3652 63.5526 12.2647 63.4907 12.1138 63.4398L11.636 63.3123C11.4627 63.2557 11.3455 63.1994 11.2841 63.1432C11.2284 63.0871 11.2006 63.0254 11.2008 62.9583C11.2011 62.88 11.2293 62.8186 11.2854 62.774C11.3415 62.7295 11.4282 62.7074 11.5457 62.7078L12.9134 62.7126L12.5096 63.0049L12.5106 62.728C12.5112 62.5434 12.4698 62.3699 12.3865 62.2073C12.3031 62.0448 12.2058 61.8767 12.0945 61.7029C11.9832 61.5235 11.886 61.3273 11.8028 61.1145C11.7252 60.9016 11.6869 60.6526 11.6878 60.3673C11.69 59.724 11.9155 59.2046 12.3643 58.809C12.8132 58.4134 13.4235 58.217 14.1955 58.2197C14.6933 58.2215 15.1154 58.3069 15.4616 58.4759C15.8079 58.6394 16.0701 58.8557 16.2482 59.1248C16.4319 59.3939 16.5232 59.6851 16.5221 59.9984C16.5211 60.306 16.4448 60.5379 16.2932 60.694C16.1417 60.8501 15.9428 60.9277 15.6967 60.9268C15.4394 60.9259 15.2327 60.8441 15.0766 60.6813C14.9262 60.513 14.8514 60.289 14.8523 60.0093L14.8537 59.5981C14.8547 59.3129 14.7771 59.0972 14.6209 58.9512C14.4704 58.7997 14.2553 58.7234 13.9756 58.7224C13.64 58.7268 13.3795 58.835 13.1942 59.0469C13.0145 59.2532 12.924 59.5522 12.9227 59.9437C12.9219 60.1843 12.9603 60.4054 13.0379 60.607C13.1212 60.8031 13.224 60.988 13.3465 61.1619C13.4746 61.3301 13.5999 61.4928 13.7225 61.6499C13.845 61.8069 13.9479 61.9695 14.0313 62.1376C14.1146 62.3057 14.156 62.4877 14.1553 62.6835L14.1541 63.0275L13.9286 62.7162L15.892 62.7232C16.0039 62.7235 16.0906 62.7462 16.1519 62.7912C16.2133 62.8306 16.2439 62.8922 16.2436 62.9761C16.2432 63.0936 16.1842 63.1913 16.0664 63.2692C15.9487 63.3415 15.7668 63.3772 15.5207 63.3763L14.2621 63.3719L14.2422 69.2789ZM21.4689 62.4156C22.2855 62.4185 23.0065 62.5972 23.6319 62.9518C24.2572 63.3009 24.745 63.7865 25.0953 64.4086C25.4457 65.0308 25.6195 65.7474 25.6167 66.5585C25.6141 67.3416 25.4327 68.043 25.0727 68.6626C24.7126 69.2823 24.2159 69.77 23.5826 70.1258C22.9493 70.4759 22.2159 70.6495 21.3825 70.6466C20.5602 70.6437 19.8364 70.4649 19.2111 70.1103C18.5913 69.7557 18.1035 69.2673 17.7476 68.6452C17.3973 68.023 17.2235 67.3092 17.2262 66.5037C17.2289 65.7094 17.4102 65.0052 17.7703 64.3911C18.136 63.7771 18.6354 63.295 19.2687 62.9448C19.902 62.5891 20.6354 62.4127 21.4689 62.4156ZM22.0225 69.944C22.4926 69.8786 22.8736 69.6897 23.1656 69.3775C23.4575 69.0597 23.6547 68.6353 23.7572 68.1042C23.8597 67.5676 23.8506 66.9354 23.73 66.2078C23.6094 65.4802 23.41 64.8753 23.132 64.3933C22.8595 63.9113 22.525 63.5633 22.1286 63.3493C21.7322 63.1297 21.2961 63.0527 20.8204 63.1181C20.3559 63.1836 19.9749 63.3753 19.6773 63.6931C19.3854 64.0053 19.191 64.4297 19.0941 64.9664C18.9972 65.4975 19.0063 66.1268 19.1213 66.8544C19.2363 67.582 19.4329 68.1868 19.711 68.6689C19.989 69.1509 20.3235 69.5017 20.7143 69.7213C21.1107 69.9352 21.5468 70.0095 22.0225 69.944ZM29.5376 66.1108C29.5403 65.3165 29.66 64.6485 29.8968 64.1067C30.1336 63.5594 30.4398 63.1465 30.8155 62.8681C31.1913 62.5842 31.5889 62.4429 32.0084 62.4444C32.5119 62.4462 32.903 62.5874 33.1817 62.8681C33.4605 63.1488 33.599 63.5352 33.5974 64.0275C33.5961 64.4078 33.5112 64.6984 33.3427 64.8992C33.1798 65.0944 32.9697 65.1916 32.7124 65.1907C32.4495 65.1897 32.2456 65.1163 32.1006 64.9703C31.9557 64.8244 31.8837 64.62 31.8845 64.3571L31.8855 64.0718C31.8861 63.8816 31.8419 63.7416 31.7527 63.6518C31.6635 63.5564 31.5182 63.5083 31.3168 63.5076C31.0763 63.5067 30.841 63.6038 30.611 63.7988C30.381 63.9882 30.1927 64.2756 30.0459 64.661C29.8992 65.0409 29.8249 65.5245 29.8229 66.1118L29.5376 66.1108ZM29.7413 62.9315L29.8269 64.9204L29.812 69.3422C29.8116 69.4765 29.842 69.5829 29.9033 69.6614C29.9702 69.7344 30.0819 69.7823 30.2384 69.8052L30.9932 69.9086C31.1051 69.9258 31.1889 69.9596 31.2446 70.0102C31.3004 70.0607 31.3281 70.1279 31.3278 70.2118C31.3276 70.2957 31.2938 70.3627 31.2265 70.4128C31.1648 70.463 31.0724 70.4878 30.9493 70.4874L27.4001 70.4749C27.2714 70.4744 27.1764 70.4489 27.1151 70.3983C27.0593 70.3478 27.0316 70.2834 27.0318 70.2051C27.0321 70.1323 27.0546 70.0737 27.0995 70.0291C27.1445 69.9789 27.2145 69.94 27.3097 69.9124L27.7127 69.8299C27.8247 69.8023 27.9088 69.7523 27.965 69.6797C28.0212 69.6016 28.0495 69.4898 28.05 69.3444L28.0676 64.117C28.068 63.994 28.0459 63.9044 28.0013 63.8483C27.9624 63.7922 27.8954 63.7584 27.8003 63.7469L27.2298 63.7197C27.1348 63.7082 27.0677 63.6828 27.0287 63.6435C26.9897 63.6042 26.9703 63.551 26.9705 63.4839C26.9707 63.4167 26.9933 63.3609 27.0382 63.3163C27.0887 63.2661 27.1728 63.2189 27.2904 63.1745L28.6765 62.7011C28.8949 62.618 29.0545 62.5654 29.1553 62.5434C29.2616 62.5158 29.3484 62.5021 29.4155 62.5024C29.5162 62.5027 29.5916 62.5366 29.6417 62.6039C29.6974 62.6712 29.7306 62.7804 29.7413 62.9315ZM41.8937 65.6342C41.8928 65.8859 41.8167 66.0786 41.6652 66.2124C41.5193 66.3405 41.3037 66.4041 41.0184 66.4031L35.6568 66.3841L35.6586 65.8555L39.6861 65.8698C39.9602 65.8707 40.0977 65.7509 40.0985 65.5104C40.101 64.7608 39.9407 64.1757 39.6177 63.755C39.2947 63.3344 38.8647 63.1231 38.3277 63.1212C37.9025 63.1197 37.5274 63.2386 37.2021 63.478C36.8769 63.7174 36.6212 64.0605 36.4351 64.5074C36.2546 64.9486 36.1633 65.4713 36.1613 66.0755C36.1576 67.1886 36.4204 68.0342 36.9499 68.6123C37.485 69.1903 38.1832 69.4809 39.0447 69.4839C39.5984 69.4859 40.0799 69.3617 40.4891 69.1114C40.8983 68.8611 41.1847 68.5293 41.3483 68.1159C41.4213 68.0267 41.4803 67.9654 41.5251 67.932C41.57 67.893 41.6204 67.8736 41.6764 67.8738C41.7547 67.874 41.8105 67.9078 41.8438 67.9751C41.8772 68.0367 41.8909 68.1123 41.885 68.2017C41.8499 68.6659 41.6807 69.0876 41.3773 69.467C41.0796 69.8463 40.6814 70.1497 40.1828 70.3773C39.6842 70.5993 39.1189 70.7092 38.4868 70.707C37.7036 70.7042 37.0133 70.5396 36.4159 70.213C35.8185 69.8809 35.353 69.4149 35.0194 68.8152C34.6913 68.2155 34.5287 67.5157 34.5314 66.7158C34.5341 65.8991 34.6988 65.1725 35.0253 64.536C35.3519 63.8938 35.8151 63.3892 36.4149 63.0221C37.0203 62.6495 37.7341 62.4646 38.5564 62.4675C39.2444 62.4699 39.8369 62.6063 40.3339 62.8765C40.8364 63.1468 41.2211 63.5202 41.488 63.9966C41.7605 64.4674 41.8958 65.0133 41.8937 65.6342ZM50.4647 64.6911C50.4638 64.954 50.3764 65.1747 50.2024 65.3531C50.0284 65.5259 49.7987 65.6118 49.5134 65.6108C49.2338 65.6098 49.0159 65.5307 48.8598 65.3735C48.7093 65.2108 48.6345 64.9979 48.6354 64.735L48.6363 64.4665C48.6376 64.075 48.5016 63.7584 48.2283 63.5169C47.955 63.2754 47.5807 63.1538 47.1052 63.1522C46.6745 63.1506 46.2909 63.2724 45.9544 63.5173C45.6236 63.7567 45.3623 64.0998 45.1706 64.5466C44.979 64.9878 44.8821 65.5077 44.8801 66.1062C44.8777 66.8334 44.9986 67.452 45.2431 67.9619C45.4875 68.4662 45.8274 68.8506 46.2628 69.115C46.6983 69.3795 47.1929 69.5127 47.7467 69.5146C48.2781 69.5165 48.74 69.3951 49.1324 69.1503C49.5248 68.9 49.8028 68.5737 49.9663 68.1715C50.0394 68.0823 50.0983 68.021 50.1432 67.9876C50.1936 67.9486 50.2468 67.9292 50.3028 67.9294C50.3811 67.9353 50.4341 67.969 50.4619 68.0306C50.4952 68.0923 50.509 68.1651 50.5031 68.2489C50.4624 68.7131 50.2959 69.1348 50.0038 69.5142C49.7116 69.8879 49.3247 70.1858 48.8428 70.4079C48.361 70.6299 47.8097 70.7399 47.1888 70.7377C46.4112 70.7349 45.7237 70.5703 45.1263 70.2437C44.5289 69.9116 44.0634 69.4457 43.7297 68.846C43.4017 68.2463 43.2391 67.5465 43.2418 66.7465C43.2444 65.9466 43.4147 65.2256 43.7525 64.5835C44.0958 63.9415 44.5758 63.4341 45.1924 63.0615C45.809 62.6833 46.5312 62.4957 47.3591 62.4986C48.0024 62.5009 48.5558 62.6035 49.0194 62.8065C49.483 63.0095 49.8401 63.2765 50.0908 63.6074C50.3414 63.9383 50.466 64.2996 50.4647 64.6911ZM56.8649 69.5468L56.8655 69.3874L56.7565 69.3366L56.7727 64.5372C56.7743 64.0561 56.6553 63.6865 56.4156 63.4284C56.176 63.1646 55.8324 63.0319 55.3849 63.0304C54.9598 63.0289 54.6406 63.1172 54.4274 63.2955C54.2143 63.4737 54.1073 63.6831 54.1065 63.9237L54.1043 64.5781C54.1034 64.8522 54.0132 65.0617 53.8337 65.2065C53.6598 65.3513 53.419 65.4232 53.1113 65.4221C52.8373 65.4211 52.6277 65.3505 52.4828 65.2101C52.3434 65.0642 52.2741 64.8737 52.2749 64.6388C52.2761 64.292 52.4114 63.9596 52.681 63.6417C52.9506 63.3182 53.3403 63.0539 53.85 62.8487C54.3597 62.638 54.981 62.5339 55.7138 62.5365C56.6647 62.5398 57.3688 62.7465 57.8262 63.1564C58.2891 63.5664 58.5194 64.1154 58.5171 64.8035L58.5018 69.3428C58.5012 69.5218 58.5343 69.6534 58.6012 69.7375C58.6736 69.8217 58.7713 69.864 58.8944 69.8644C59.0343 69.8649 59.135 69.8345 59.1968 69.7732C59.2585 69.7119 59.3091 69.6477 59.3485 69.5807C59.3765 69.5473 59.4046 69.5194 59.4327 69.4971C59.4663 69.4693 59.5055 69.4554 59.5503 69.4556C59.6062 69.4558 59.6481 69.4783 59.6759 69.5231C59.7037 69.5624 59.7175 69.6156 59.7173 69.6827C59.7168 69.8449 59.6603 70.0098 59.5478 70.1772C59.441 70.3446 59.2811 70.4867 59.0681 70.6034C58.8552 70.7201 58.5893 70.7779 58.2704 70.7768C57.8285 70.7752 57.4821 70.6705 57.231 70.4627C56.9856 70.2492 56.8636 69.9439 56.8649 69.5468ZM51.8833 68.816C51.8855 68.1559 52.181 67.6172 52.7697 67.1997C53.3641 66.7767 54.1871 66.567 55.2387 66.5707C55.6191 66.5721 55.9658 66.6097 56.2788 66.6835C56.5974 66.7517 56.8768 66.8422 57.117 66.9549L56.9896 67.3992C56.755 67.3033 56.5147 67.2241 56.2688 67.1617C56.0285 67.0937 55.7657 67.0593 55.4804 67.0582C54.9266 67.0563 54.4927 67.189 54.1785 67.4564C53.8644 67.7182 53.7065 68.0785 53.705 68.5371C53.7035 68.9902 53.8282 69.3375 54.0791 69.5789C54.3356 69.8204 54.6652 69.9418 55.068 69.9432C55.4372 69.9445 55.7926 69.8619 56.1344 69.6952C56.4818 69.5231 56.7791 69.2836 57.0263 68.9768L57.2012 69.3634C56.8696 69.8097 56.4433 70.155 55.9223 70.3993C55.4012 70.6436 54.8498 70.7647 54.2681 70.7627C53.5633 70.7602 52.9877 70.5847 52.5414 70.2364C52.1007 69.8824 51.8813 69.4089 51.8833 68.816ZM63.801 63.1691C63.3814 63.1677 63.0483 63.2756 62.8014 63.4928C62.5601 63.7102 62.4389 63.9922 62.4377 64.339C62.437 64.5572 62.4867 64.7531 62.5868 64.9269C62.6869 65.1007 62.8682 65.2607 63.1306 65.4071C63.393 65.5479 63.7674 65.6806 64.2536 65.8054C65.0249 65.9872 65.6283 66.2074 66.0638 66.4663C66.4992 66.7251 66.8031 67.0199 66.9754 67.3505C67.1533 67.6812 67.2416 68.0479 67.2402 68.4507C67.2378 69.1611 66.9814 69.7307 66.4709 70.1597C65.966 70.5886 65.2409 70.8014 64.2956 70.7981C63.9487 70.7968 63.6608 70.7651 63.4316 70.7027C63.2081 70.6404 63.0209 70.5782 62.8701 70.5161C62.7249 70.4541 62.5963 70.4229 62.4844 70.4225C62.3725 70.4221 62.2829 70.4525 62.2156 70.5138C62.1483 70.5751 62.0865 70.6364 62.0304 70.6978C61.9742 70.7647 61.8958 70.798 61.7951 70.7976C61.7224 70.7974 61.6638 70.772 61.6192 70.7215C61.5802 70.6766 61.5385 70.5953 61.4941 70.4777L60.8876 68.6967C60.8434 68.5456 60.8298 68.4224 60.8469 68.3274C60.8696 68.2268 60.9314 68.1571 61.0322 68.1183C61.133 68.0795 61.2225 68.0798 61.3007 68.1192C61.3789 68.1587 61.4485 68.2316 61.5097 68.3381C61.7543 68.7977 62.0188 69.165 62.3031 69.4401C62.5931 69.7097 62.8973 69.9009 63.2158 70.0139C63.5399 70.1269 63.8697 70.184 64.2053 70.1852C64.7367 70.1871 65.1343 70.0766 65.3979 69.8538C65.6672 69.631 65.8024 69.335 65.8037 68.9658C65.8044 68.7421 65.7464 68.5405 65.6295 68.3611C65.5182 68.1761 65.3146 68.0047 65.0187 67.8471C64.7283 67.6894 64.3093 67.5425 63.7616 67.4063C63.0853 67.2417 62.5461 67.0412 62.1442 66.8049C61.7422 66.5685 61.4523 66.285 61.2744 65.9543C61.1021 65.6237 61.0167 65.243 61.0181 64.8123C61.0196 64.3648 61.1328 63.9736 61.3577 63.6388C61.5826 63.2984 61.8967 63.0338 62.3001 62.845C62.7091 62.6507 63.1849 62.5544 63.7275 62.5564C64.0799 62.5576 64.3651 62.5922 64.583 62.6601C64.801 62.728 64.9797 62.7985 65.1193 62.8717C65.2645 62.9394 65.3931 62.9734 65.505 62.9738C65.6224 62.9742 65.7148 62.941 65.7822 62.8741C65.8495 62.8072 65.9113 62.7403 65.9675 62.6733C66.0292 62.6008 66.1077 62.5648 66.2028 62.5651C66.2643 62.5653 66.3174 62.5879 66.362 62.6328C66.4121 62.6777 66.4482 62.7561 66.4702 62.8681L66.9428 64.5563C66.9815 64.7187 66.995 64.853 66.9834 64.9592C66.9719 65.0654 66.9101 65.1407 66.7981 65.1851C66.6973 65.2183 66.6106 65.2096 66.5381 65.159C66.4655 65.1028 66.3903 65.0075 66.3125 64.8729C65.9901 64.2621 65.6084 63.8272 65.1673 63.5683C64.7263 63.3039 64.2709 63.1708 63.801 63.1691ZM69.1168 63.4312L68.6641 63.3206C68.5244 63.2809 68.4294 63.2358 68.3792 63.1853C68.3291 63.1348 68.3041 63.076 68.3043 63.0088C68.3046 62.9249 68.3328 62.8607 68.3889 62.8161C68.4506 62.7716 68.5345 62.7495 68.6408 62.7499L69.1778 62.7518C69.3233 62.7523 69.4408 62.7303 69.5305 62.6859C69.6201 62.6359 69.7015 62.5495 69.7747 62.4267L70.4584 61.1956C70.5428 61.0729 70.6242 60.9837 70.7027 60.928C70.7868 60.8668 70.8736 60.8363 70.9631 60.8366C71.0582 60.837 71.1308 60.868 71.1809 60.9297C71.2367 60.9858 71.2644 61.067 71.264 61.1733L71.2392 68.5655C71.2379 68.9514 71.3152 69.2454 71.4712 69.4473C71.6327 69.6493 71.8561 69.7507 72.1414 69.7517C72.3428 69.7525 72.4995 69.7194 72.6116 69.6527C72.7293 69.586 72.8191 69.508 72.8809 69.4187C72.9483 69.3295 73.0101 69.2486 73.0663 69.176C73.1281 69.1035 73.2009 69.0646 73.2849 69.0593C73.3576 69.0596 73.4106 69.0822 73.4441 69.127C73.4831 69.1719 73.5024 69.2447 73.5021 69.3454C73.4956 69.5915 73.4054 69.8233 73.2312 70.0409C73.0627 70.2584 72.8271 70.4366 72.5246 70.5754C72.2221 70.7086 71.875 70.7745 71.4835 70.7731C70.8682 70.7709 70.3793 70.6098 70.0167 70.2896C69.6542 69.9695 69.474 69.485 69.4762 68.8361L69.4928 63.9108C69.4932 63.7766 69.4656 63.6758 69.4099 63.6085C69.3542 63.5356 69.2565 63.4765 69.1168 63.4312ZM70.4678 63.4024L70.47 62.7564L73.1046 62.7657C73.2165 62.7661 73.3031 62.7887 73.3645 62.8337C73.4259 62.8731 73.4565 62.9347 73.4562 63.0186C73.4558 63.1305 73.3968 63.2254 73.279 63.3033C73.1613 63.3756 72.9794 63.4113 72.7333 63.4104L70.4678 63.4024Z" fill="black"/>
<path d="M51.3429 39.7218C50.9856 40.3691 50.5656 41.1625 50.0829 42.1019C49.6156 43.0283 49.1125 44.0382 48.5736 45.1316C48.0347 46.2249 47.4862 47.3463 46.9281 48.4957C46.37 49.6452 45.8132 50.7803 45.2575 51.9011C44.703 53.0075 44.1832 54.0448 43.6981 55.0129C43.2129 55.981 42.7678 56.8155 42.3627 57.5163C42.1608 57.8596 41.8831 58.0734 41.5296 58.1579C41.1893 58.258 40.8263 58.1972 40.4407 57.9756C40.055 57.754 39.8115 57.4727 39.7102 57.1317C39.6088 56.7907 39.6597 56.4414 39.8628 56.0838C40.2523 55.3961 40.71 54.5844 41.2357 53.6487C41.7758 52.7143 42.3571 51.7185 42.9796 50.6613C43.6033 49.5899 44.2425 48.5053 44.8973 47.4077C45.5533 46.2957 46.1919 45.2183 46.8132 44.1755C47.4357 43.1184 48.0087 42.1363 48.532 41.2293C49.0554 40.3223 49.4957 39.5451 49.853 38.8979C50.2258 38.2375 50.6464 37.437 51.1148 36.4963C51.5976 35.5568 52.1084 34.5404 52.6473 33.447C53.1875 32.3393 53.7366 31.2108 54.2946 30.0613C54.8682 28.8988 55.4251 27.7637 55.9652 26.656C56.5209 25.5353 57.0479 24.4986 57.5462 23.5461C58.0457 22.5792 58.483 21.7513 58.8582 21.0622C59.0757 20.7059 59.354 20.4849 59.6931 20.3992C60.0335 20.2991 60.3965 20.3599 60.7821 20.5815C61.182 20.8043 61.4249 21.0928 61.5108 21.4469C61.6121 21.7879 61.5684 22.1378 61.3796 22.4966C60.9889 23.1987 60.5229 24.0241 59.9816 24.9729C59.4416 25.9073 58.8525 26.9097 58.2145 27.9799C57.5764 29.0501 56.9294 30.1412 56.2735 31.2531C55.633 32.352 55.0015 33.43 54.379 34.4872C53.7577 35.53 53.1854 36.5049 52.662 37.4119C52.1542 38.3059 51.7145 39.0758 51.3429 39.7218Z" fill="black"/>
<path d="M13.3125 42.4054C12.8138 42.4036 12.4118 42.1912 12.1064 41.7682C11.8009 41.3452 11.6496 40.7213 11.6524 39.8967C11.6557 38.8994 11.8218 37.989 12.1506 37.1654C12.4986 36.3228 12.9807 35.5478 13.5968 34.8403C14.0973 34.2859 14.7033 33.751 15.4146 33.2357C16.126 32.7012 16.9524 32.1959 17.8938 31.7197C18.9888 31.1674 19.8826 30.5856 20.5751 29.9743C21.2676 29.3439 21.7877 28.6745 22.1353 27.9661C22.4829 27.2577 22.6582 26.472 22.6611 25.6089C22.6638 24.7842 22.4264 24.1026 21.9487 23.5639C21.4903 23.0252 20.8875 22.6299 20.1403 22.378C19.3933 22.1068 18.5882 21.9698 17.7252 21.9667C17.169 21.9647 16.6798 22.0206 16.2574 22.1341C15.8543 22.2478 15.5278 22.3905 15.2779 22.5622C15.0472 22.7148 14.9317 22.8583 14.9312 22.9925C14.9308 23.1076 15.0358 23.2614 15.2461 23.4539C15.4756 23.6465 15.8582 23.9355 16.3939 24.321C16.8722 24.6679 17.2354 25.0336 17.4834 25.418C17.7315 25.7833 17.8549 26.1673 17.8536 26.5701C17.8516 27.1454 17.6871 27.6051 17.3599 27.9492C17.0519 28.2742 16.6579 28.5125 16.178 28.6642C15.698 28.7968 15.1992 28.8622 14.6813 28.8603C14.2211 28.8587 13.7514 28.7899 13.2724 28.654C12.8126 28.5181 12.4202 28.277 12.0953 27.9306C11.7896 27.5843 11.6379 27.0947 11.64 26.4618C11.642 25.8481 11.8263 25.2351 12.1928 24.6226C12.5784 24.0103 13.1365 23.4465 13.867 22.9312C14.5976 22.3968 15.5004 21.978 16.5754 21.675C17.6697 21.3528 18.9265 21.1942 20.3457 21.1992C22.9348 21.2083 24.9279 21.6565 26.3249 22.5437C27.722 23.4308 28.4178 24.6895 28.4123 26.3197C28.409 27.2978 28.1279 28.1982 27.569 29.0209C27.0292 29.8437 26.2212 30.5984 25.1448 31.285C24.0686 31.9525 22.724 32.5519 21.1112 33.0832C19.153 33.69 17.5495 34.2885 16.3009 34.8786C15.0715 35.4496 14.1298 36.0313 13.4758 36.6235C12.8217 37.2157 12.4072 37.8568 12.2323 38.5466L12.5195 38.6915C12.8279 38.2131 13.2224 37.8117 13.703 37.4874C14.2028 37.1439 14.7503 36.8773 15.3455 36.6876C15.9599 36.4788 16.5837 36.3372 17.2168 36.2627C17.8692 36.1691 18.4926 36.1426 19.087 36.183C19.9308 36.2244 20.7262 36.3614 21.4734 36.5942C22.2399 36.8079 22.9487 37.0501 23.5998 37.3209C24.2702 37.5918 24.8543 37.8336 25.3522 38.0463C25.8502 38.259 26.2622 38.366 26.5882 38.3671C27.1444 38.3691 27.5866 38.0542 27.9147 37.4224C28.2429 36.7907 28.4091 35.8515 28.4132 34.6049L28.7009 34.6059C28.696 36.0635 28.5481 37.2904 28.257 38.2867C27.9852 39.283 27.5893 40.0872 27.0694 40.699C26.5495 41.3109 25.9439 41.7499 25.2526 42.016C24.5804 42.3013 23.8319 42.4425 23.0073 42.4396C22.3744 42.4373 21.6842 42.3486 20.9368 42.1733C20.1894 42.0173 19.4325 41.8036 18.6663 41.5324C17.9001 41.2612 17.1435 40.9709 16.3965 40.6614C15.7071 40.3713 15.0751 40.1101 14.5005 39.8779C13.9259 39.6458 13.447 39.4619 13.0639 39.3263C12.7 39.1716 12.4318 39.0939 12.2592 39.0933C12.1441 39.0929 12.0865 39.131 12.0862 39.2077C12.0856 39.3804 12.1906 39.5342 12.4011 39.6692C12.6308 39.8042 12.8892 39.949 13.1764 40.1034C13.5403 40.2581 13.8465 40.4414 14.0951 40.6533C14.363 40.846 14.4964 41.0958 14.4953 41.4026C14.4944 41.6711 14.3882 41.9009 14.1766 42.092C13.9649 42.3022 13.6769 42.4066 13.3125 42.4054ZM30.7538 37.0297L30.7561 36.3393C31.5051 36.0351 32.2063 35.6636 32.8599 35.2247C33.5135 34.7668 34.0427 34.2316 34.4475 33.6193C34.7174 33.2175 34.9299 32.7772 35.0849 32.2982C35.2399 31.8193 35.3184 31.3114 35.3202 30.7744C35.3223 30.1415 35.1709 29.5464 34.8659 28.9891C34.5801 28.4127 34.103 27.711 33.4345 26.884C33.0142 26.4222 32.6513 25.951 32.3461 25.4705C32.0601 24.9708 31.918 24.4621 31.9197 23.9443C31.9214 23.4265 32.0572 22.9666 32.3271 22.5648C32.6161 22.1631 33.0008 21.848 33.481 21.6196C33.9613 21.3719 34.5083 21.2492 35.122 21.2514C35.87 21.254 36.5117 21.496 37.0471 21.9774C37.5825 22.4395 37.983 23.1122 38.2485 23.9954C38.5333 24.8594 38.6736 25.9148 38.6694 27.1614C38.665 28.4847 38.4981 29.6444 38.1687 30.6406C37.8585 31.6176 37.4433 32.4696 36.923 33.1965C36.4221 33.866 35.8641 34.4298 35.2488 34.888C34.6336 35.3269 33.99 35.6698 33.3179 35.9168C32.665 36.1638 32.0411 36.3246 31.4463 36.3993L31.4451 36.7445L39.6449 36.5145L39.6751 27.5101L45.1321 21.6319L45.391 21.6328L45.3415 36.362L47.039 36.3104L47.0364 37.0872L45.3391 37.0812L45.3242 41.5114L46.8767 41.8046L46.8757 42.0923L38.0727 42.0612L38.0737 41.7735L39.6281 41.4913L39.643 37.0611L30.7538 37.0297Z" fill="#341355"/>
<path d="M64.4777 55.7836C63.1544 55.7789 61.9852 55.5542 60.9702 55.1095C59.9552 54.6648 59.1614 54.0483 58.5887 53.26C58.0351 52.4717 57.7601 51.5597 57.7636 50.5241C57.767 49.5076 58.029 48.5975 58.5495 47.7939C59.0893 46.9711 59.9069 46.2356 61.0022 45.5874C62.0977 44.92 63.4805 44.3207 65.1509 43.7896C66.6867 43.3347 67.9734 42.8406 69.0108 42.3073C70.0674 41.774 70.9037 41.192 71.5195 40.5613C72.1354 39.9114 72.5406 39.2032 72.7349 38.4367L72.4477 38.2919C72.1586 38.732 71.7257 39.1428 71.149 39.5243C70.5724 39.8867 69.9194 40.1625 69.19 40.3517C68.4797 40.541 67.7507 40.6151 67.0029 40.5741C66.1016 40.5326 65.239 40.4144 64.4149 40.2197C63.6101 40.0059 62.8629 39.7827 62.1732 39.5502C61.4837 39.2984 60.8707 39.0853 60.3342 38.9108C59.7979 38.7171 59.3475 38.6196 58.9831 38.6183C58.5995 38.617 58.2731 38.7309 58.0038 38.9601C57.7346 39.1893 57.5224 39.5338 57.3675 39.9935C57.2317 40.4533 57.1338 41.0379 57.0739 41.7473L57.0708 42.6679L56.7543 42.6668L56.7803 34.957L57.2118 34.9585L57.1982 38.986C57.5675 37.5297 58.2521 36.4294 59.2519 35.6849C60.2517 34.9213 61.538 34.5423 63.1106 34.5478C63.686 34.5498 64.2803 34.6286 64.8935 34.7842C65.5259 34.9399 66.1485 35.1531 66.7613 35.4237C67.3741 35.6752 67.9582 35.9458 68.5134 36.2354C69.0879 36.506 69.624 36.7764 70.1217 37.0466C70.6387 37.2978 71.0983 37.5008 71.5005 37.6556C71.9028 37.8105 72.2189 37.8883 72.4491 37.8891C72.6025 37.8897 72.6794 37.8324 72.6798 37.7173C72.6801 37.6406 72.5845 37.5348 72.3932 37.3999C72.2211 37.2458 71.915 37.0338 71.4748 36.7637C71.0728 36.513 70.7668 36.2817 70.5565 36.07C70.3463 35.8391 70.2415 35.6374 70.2421 35.4648C70.243 35.1963 70.3492 34.9857 70.5607 34.833C70.7722 34.6611 71.0602 34.5759 71.4246 34.5771C72.0191 34.5792 72.4788 34.7439 72.8038 35.0711C73.148 35.3791 73.3191 35.8209 73.3172 36.3962C73.3141 37.2976 73.2057 38.1603 72.992 38.9842C72.7974 39.8082 72.5073 40.5552 72.1214 41.2251C71.7742 41.8184 71.1677 42.5259 70.3019 43.3475C69.4361 44.1691 68.3687 45.0476 67.0998 45.9829C66.3499 46.5364 65.7248 47.0808 65.2243 47.616C64.7431 48.1514 64.3769 48.6775 64.1258 49.1944C63.8748 49.7114 63.7483 50.2383 63.7465 50.7753C63.7433 51.7343 64.0572 52.4833 64.6883 53.0226C65.3194 53.5618 66.1911 53.8334 67.3035 53.8373C67.8789 53.8394 68.4451 53.6975 69.0023 53.4118C69.5595 53.1069 70.0403 52.6963 70.4448 52.1799C70.8685 51.6635 71.1773 51.0797 71.3713 50.4283L71.7159 50.6021C71.4054 51.6942 70.9132 52.6322 70.2393 53.4162C69.5654 54.1809 68.7388 54.7726 67.7592 55.191C66.799 55.5904 65.7051 55.7879 64.4777 55.7836Z" fill="#077066"/>
</svg>
